<?xml version="1.0" encoding="utf-8"?>
<!-- Generator: Adobe Illustrator 19.2.1, SVG Export Plug-In . SVG Version: 6.00 Build 0)  -->
<svg version="1.2" baseProfile="tiny" id="Layer_1" xmlns="http://www.w3.org/2000/svg" xmlns:xlink="http://www.w3.org/1999/xlink"
	 x="0px" y="0px" viewBox="0 0 334.5 102.1" xml:space="preserve">
<g>
	<g>
		<path fill="#E92059" d="M78.2,9.2c7.8,4.3,14,10.2,18.4,17.7c4.5,7.5,6.7,15.8,6.7,24.9c0,9.1-2.2,17.5-6.7,25
			c-4.5,7.5-10.6,13.5-18.4,17.9c-7.8,4.4-16.5,6.6-26,6.6c-9.5,0-18.2-2.2-26-6.6c-7.8-4.4-14-10.3-18.4-17.9
			c-4.5-7.5-6.7-15.9-6.7-25c0-9.1,2.2-17.4,6.7-24.9c4.5-7.5,10.6-13.4,18.4-17.7c7.8-4.3,16.5-6.4,26-6.4
			C61.8,2.8,70.4,4.9,78.2,9.2z M36.2,23.5c-5,2.9-9,6.8-11.9,11.8c-2.9,5-4.4,10.5-4.4,16.5c0,6,1.5,11.6,4.5,16.6
			c3,5,6.9,9,11.9,11.9c5,2.9,10.4,4.4,16.2,4.4c5.8,0,11.1-1.5,16-4.4c4.9-2.9,8.8-6.9,11.7-11.9c2.9-5,4.3-10.6,4.3-16.6
			c0-6-1.4-11.5-4.3-16.5c-2.9-5-6.8-8.9-11.7-11.8s-10.3-4.3-16-4.3C46.7,19.2,41.3,20.6,36.2,23.5z"/>
		<path fill="#E92059" d="M119.6,4h18.4v79.3h41.4v16.6h-59.7V4z"/>
		<path fill="#E92059" d="M193.7,4H212v95.9h-18.4V4z"/>
		<path fill="#E92059" d="M305.2,9.2c7.8,4.3,14,10.2,18.4,17.7c4.5,7.5,6.7,15.8,6.7,24.9c0,9.1-2.2,17.5-6.7,25
			c-4.5,7.5-10.6,13.5-18.4,17.9c-7.8,4.4-16.5,6.6-26,6.6c-9.5,0-18.2-2.2-26-6.6c-7.8-4.4-14-10.3-18.4-17.9
			c-4.5-7.5-6.7-15.9-6.7-25c0-9.1,2.2-17.4,6.7-24.9c4.5-7.5,10.6-13.4,18.4-17.7c7.8-4.3,16.5-6.4,26-6.4
			C288.7,2.8,297.3,4.9,305.2,9.2z M263.2,23.5c-5,2.9-9,6.8-11.9,11.8c-2.9,5-4.4,10.5-4.4,16.5c0,6,1.5,11.6,4.5,16.6
			c3,5,6.9,9,11.9,11.9c5,2.9,10.4,4.4,16.2,4.4c5.8,0,11.1-1.5,16-4.4c4.9-2.9,8.8-6.9,11.7-11.9c2.9-5,4.3-10.6,4.3-16.6
			c0-6-1.4-11.5-4.3-16.5c-2.9-5-6.8-8.9-11.7-11.8c-4.9-2.9-10.3-4.3-16-4.3C273.6,19.2,268.2,20.6,263.2,23.5z"/>
	</g>
	<g>
		<path fill="#FFFFFF" d="M81.3,7.2c7.8,4.3,14,10.2,18.4,17.7c4.5,7.5,6.7,15.8,6.7,24.9c0,9.1-2.2,17.5-6.7,25
			c-4.5,7.5-10.6,13.5-18.4,17.9c-7.8,4.4-16.5,6.6-26,6.6c-9.5,0-18.2-2.2-26-6.6c-7.8-4.4-14-10.3-18.4-17.9
			c-4.5-7.5-6.7-15.9-6.7-25c0-9.1,2.2-17.4,6.7-24.9c4.5-7.5,10.6-13.4,18.4-17.7c7.8-4.3,16.5-6.4,26-6.4
			C64.8,0.8,73.5,2.9,81.3,7.2z M39.3,21.5c-5,2.9-9,6.8-11.9,11.8c-2.9,5-4.4,10.5-4.4,16.5c0,6,1.5,11.6,4.5,16.6
			c3,5,6.9,9,11.9,11.9c5,2.9,10.4,4.4,16.2,4.4c5.8,0,11.1-1.5,16-4.4c4.9-2.9,8.8-6.9,11.7-11.9c2.9-5,4.3-10.6,4.3-16.6
			c0-6-1.4-11.5-4.3-16.5c-2.9-5-6.8-8.9-11.7-11.8s-10.3-4.3-16-4.3C49.7,17.2,44.3,18.7,39.3,21.5z"/>
		<path fill="#FFFFFF" d="M122.6,2h18.4v79.3h41.4v16.6h-59.7V2z"/>
		<path fill="#FFFFFF" d="M196.7,2h18.4v95.9h-18.4V2z"/>
		<path fill="#FFFFFF" d="M308.2,7.2c7.8,4.3,14,10.2,18.4,17.7c4.5,7.5,6.7,15.8,6.7,24.9c0,9.1-2.2,17.5-6.7,25
			c-4.5,7.5-10.6,13.5-18.4,17.9c-7.8,4.4-16.5,6.6-26,6.6c-9.5,0-18.2-2.2-26-6.6c-7.8-4.4-14-10.3-18.4-17.9
			c-4.5-7.5-6.7-15.9-6.7-25c0-9.1,2.2-17.4,6.7-24.9c4.5-7.5,10.6-13.4,18.4-17.7c7.8-4.3,16.5-6.4,26-6.4
			C291.7,0.8,300.4,2.9,308.2,7.2z M266.2,21.5c-5,2.9-9,6.8-11.9,11.8c-2.9,5-4.4,10.5-4.4,16.5c0,6,1.5,11.6,4.5,16.6
			c3,5,6.9,9,11.9,11.9c5,2.9,10.4,4.4,16.2,4.4c5.8,0,11.1-1.5,16-4.4c4.9-2.9,8.8-6.9,11.7-11.9c2.9-5,4.3-10.6,4.3-16.6
			c0-6-1.4-11.5-4.3-16.5c-2.9-5-6.8-8.9-11.7-11.8c-4.9-2.9-10.3-4.3-16-4.3C276.6,17.2,271.2,18.7,266.2,21.5z"/>
	</g>
</g>
</svg>
